<?xml version="1.0" encoding="iso-8859-1"?>
<!-- Generator: Adobe Illustrator 19.0.0, SVG Export Plug-In . SVG Version: 6.00 Build 0)  -->
<svg version="1.1" id="Capa_1" xmlns="http://www.w3.org/2000/svg" xmlns:xlink="http://www.w3.org/1999/xlink" x="0px" y="0px"
	 viewBox="0 0 512 512" style="enable-background:new 0 0 512 512;" xml:space="preserve">
<path style="fill:#2DADE3;" d="M185.433,65.159c-4.268,0-7.726,3.459-7.726,7.726c0,46.864-38.127,84.99-84.99,84.99H46.358v15.453
	h46.358c55.385,0,100.443-45.058,100.443-100.443C193.159,68.618,189.7,65.159,185.433,65.159z"/>
<path style="fill:#FFF0D3;" d="M255.993,202.173c-4.261,0-7.726-3.466-7.726-7.726s3.466-7.726,7.726-7.726h22.378
	c4.268,0,7.726-3.459,7.726-7.726c0-4.267-3.458-7.726-7.726-7.726h-22.378c-12.78,0-23.179,10.398-23.179,23.179
	s10.399,23.179,23.179,23.179h108.175v-15.453H255.993z"/>
<path style="fill:#FFD9D4;" d="M503.243,109.457c-4.268,0-7.726,3.459-7.726,7.726c0,46.864-38.127,84.99-84.99,84.99h-46.359
	v15.453h46.359c55.385,0,100.443-45.058,100.443-100.443C510.97,112.916,507.51,109.457,503.243,109.457z"/>
<polygon style="fill:#696969;" points="217.222,484.958 248.127,484.958 248.127,423.147 217.222,438.6 "/>
<polygon style="fill:#4F4F4F;" points="481.095,423.147 481.095,484.958 512,484.958 512,438.6 "/>
<polygon style="fill:#696969;" points="481.095,438.6 512,438.6 512,407.694 450.189,392.241 "/>
<polygon style="fill:#808080;" points="217.222,407.694 217.222,438.6 481.095,438.6 481.095,359.276 "/>
<path style="fill:#A8E5FF;" d="M217.222,407.694h263.873H217.222z"/>
<path style="fill:#B9D171;" d="M481.095,240.805h-30.905v135.984h34.254L512,342.535V271.71
	C512,254.712,498.093,240.805,481.095,240.805z"/>
<path style="fill:#D5E3AA;" d="M450.189,240.805H248.127c-16.998,0-30.905,13.907-30.905,30.905v70.825l27.557,47.646h236.315
	V271.71C481.095,254.712,467.187,240.805,450.189,240.805z"/>
<path style="fill:#FF4128;" d="M410.527,297.465l-61.811-30.905l46.358,123.622h30.905v-51.854
	C425.98,322.657,420.138,308.359,410.527,297.465z"/>
<path style="fill:#FF6337;" d="M379.622,297.465l-30.905-30.905l-30.905,30.905c-9.611,10.894-15.453,25.192-15.453,40.862v51.854
	h92.716v-51.854C395.074,322.657,389.232,308.359,379.622,297.465z"/>
<path style="fill:#9DB55F;" d="M456.885,390.181c0-16.998-13.907-30.905-30.905-30.905h-30.905l30.905,48.418h30.905l30.905-24.209
	L456.885,390.181z"/>
<path style="fill:#B9D171;" d="M395.074,359.276h-91.832c-16.998,0-30.905,13.907-30.905,30.905h-30.905l30.905,17.513H425.98
	v-17.513C425.98,373.183,412.072,359.276,395.074,359.276z"/>
<g>
	<path style="fill:#869E47;" d="M244.779,314.978c-15.22,0-27.557,12.338-27.557,27.557v65.159h55.115v-65.159
		C272.337,327.315,259.998,314.978,244.779,314.978z"/>
	<path style="fill:#869E47;" d="M484.443,314.978c-15.22,0-27.557,12.338-27.557,27.557v65.159H512v-65.159
		C512,327.315,499.663,314.978,484.443,314.978z"/>
</g>
<path style="fill:#353535;" d="M389.924,189.296h-30.905l20.604,108.169h30.905v-87.565
	C410.527,198.52,401.303,189.296,389.924,189.296z"/>
<path style="fill:#4F4F4F;" d="M359.018,189.296h-20.604c-11.379,0-20.604,9.224-20.604,20.604v87.565h61.811v-87.565
	C379.622,198.52,370.397,189.296,359.018,189.296z"/>
<path style="fill:#FFF0D3;" d="M312.226,481.499l13.753-27.506V343.823c0-4.268,3.459-7.726,7.726-7.726s7.726,3.458,7.726,7.726
	v111.995c0,1.199-0.279,2.382-0.816,3.455l-14.569,29.137c-1.908,3.816-6.549,5.366-10.366,3.455
	C311.865,489.957,310.317,485.316,312.226,481.499z"/>
<path style="fill:#FFD9D4;" d="M416.996,481.499l-13.753-27.506V343.823c0-4.268-3.459-7.726-7.726-7.726
	c-4.267,0-7.726,3.458-7.726,7.726v111.995c0,1.199,0.279,2.382,0.816,3.455l14.569,29.137c1.908,3.816,6.549,5.366,10.366,3.455
	C417.357,489.957,418.904,485.316,416.996,481.499z"/>
<path style="fill:#FF4128;" d="M364.169,65.674c25.603,0,46.358-20.755,46.358-46.358C384.924,19.316,364.169,40.071,364.169,65.674
	z"/>
<path style="fill:#999999;" d="M317.811,19.316c0,25.603,20.755,46.358,46.358,46.358C364.169,40.071,343.414,19.316,317.811,19.316
	z"/>
<path style="fill:#2DADE3;" d="M330.593,80.066l-37.288,39.162c-3.963,4.159-6.401,9.785-6.401,15.983
	c0,12.801,10.378,23.179,23.179,23.179h54.085V80.066H330.593z"/>
<path style="fill:#1990C2;" d="M435.03,119.228l-37.287-39.162h-33.575v78.325h54.085c12.801,0,23.179-10.378,23.179-23.179
	C441.432,129.013,438.993,123.387,435.03,119.228z"/>
<path style="fill:#FFD9D4;" d="M399.457,81.998c0.01-0.01-35.289-0.005-35.289-0.005v76.463c25.6,0,46.358-20.774,46.358-46.391
	C410.526,100.601,406.359,90.091,399.457,81.998z"/>
<path style="fill:#FFF0D3;" d="M378.477,94.55l-49.598-12.552c-6.902,8.093-11.069,18.603-11.069,30.067
	c0,25.619,20.758,46.391,46.358,46.391c8.53,0,15.453-20.774,15.453-46.391C379.621,105.87,379.219,99.952,378.477,94.55z"/>
<path style="fill:#1990C2;" d="M364.168,65.674l14.309,28.876c7.675-2.299,14.912-6.489,20.98-12.552
	C390.958,72.009,378.302,65.674,364.168,65.674z"/>
<path style="fill:#2DADE3;" d="M364.168,65.674c-14.134,0-26.79,6.335-35.289,16.324c13.434,13.443,32.6,17.634,49.598,12.552
	C376.18,77.612,370.638,65.674,364.168,65.674z"/>
<path style="fill:#CCCCCC;" d="M54.085,266.559v202.525l25.621,8.54c4.049,1.35,6.236,5.725,4.887,9.773
	c-1.35,4.049-5.727,6.237-9.773,4.887l-30.903-10.302c-3.154-1.052-5.283-4.004-5.283-7.33V266.559H54.085z"/>
<g>
	<path style="fill:#B3B3B3;" d="M171.624,316.201c-2.122-10.86-11.678-18.736-22.721-18.736c-0.027,0-102.545,0-102.545,0
		l46.358,15.453h56.169c3.685,0,6.865,2.625,7.572,6.245c0.397,2.025-0.022,4.084-1.174,5.796c-1.152,1.712-2.902,2.873-4.889,3.262
		l-70.336,13.357c-3.24,0.615-5.827,3.209-6.268,6.608l-4.188,32.306c-0.549,4.232,2.436,8.108,6.669,8.656
		c4.219,0.542,8.105-2.436,8.655-6.669l3.469-26.756l64.922-12.329c6.076-1.187,11.328-4.669,14.786-9.804
		S172.81,322.278,171.624,316.201z"/>
	<path style="fill:#B3B3B3;" d="M30.905,235.654l30.905,77.264c21.857,0,30.905,0,30.905,0v-46.358L30.905,235.654z"/>
</g>
<path style="fill:#CCCCCC;" d="M0,266.559c0,25.603,20.755,46.358,46.358,46.358h15.453v-77.264L0,266.559z"/>
<path style="fill:#2DADE3;" d="M72.113,142.938H41.207l20.604,123.622h30.905V163.541C92.716,152.162,83.492,142.938,72.113,142.938
	z"/>
<path style="fill:#49C9FF;" d="M41.207,142.938H20.604C9.224,142.938,0,152.162,0,163.541v103.018h61.811V163.541
	C61.811,152.162,52.587,142.938,41.207,142.938z"/>
<path style="fill:#A45E43;" d="M81.647,35.629c0.01-0.01-35.289-0.005-35.289-0.005v76.409c25.6,0,46.358-20.758,46.358-46.358
	C92.716,54.218,88.549,43.716,81.647,35.629z"/>
<path style="fill:#C27749;" d="M60.667,48.171L11.069,35.629C4.167,43.716,0,54.218,0,65.674c0,25.6,20.758,46.358,46.358,46.358
	c8.53,0,15.453-20.758,15.453-46.358C61.811,59.483,61.409,53.569,60.667,48.171z"/>
<path style="fill:#40211D;" d="M46.358,19.316l14.309,28.855c7.675-2.297,14.912-6.485,20.98-12.542
	C73.148,25.646,60.492,19.316,46.358,19.316z"/>
<path style="fill:#60312C;" d="M46.358,19.316c-14.134,0-26.79,6.33-35.289,16.313c13.434,13.434,32.6,17.621,49.598,12.542
	C58.37,31.245,52.828,19.316,46.358,19.316z"/>
<path style="fill:#1990C2;" d="M96.466,210.738c-25.722,0-51.443-9.791-71.024-29.371c-3.017-3.017-3.017-7.91,0-10.926
	c3.018-3.017,7.91-3.017,10.927,0c33.137,33.137,87.056,33.137,120.193,0c3.019-3.018,7.911-3.017,10.927,0
	c3.016,3.017,3.017,7.91,0,10.926C147.908,200.947,122.187,210.738,96.466,210.738z"/>
<g>
</g>
<g>
</g>
<g>
</g>
<g>
</g>
<g>
</g>
<g>
</g>
<g>
</g>
<g>
</g>
<g>
</g>
<g>
</g>
<g>
</g>
<g>
</g>
<g>
</g>
<g>
</g>
<g>
</g>
</svg>
